<svg xmlns="http://www.w3.org/2000/svg" width="48" height="48" viewBox="0 0 48 48">
  <!--
  Developed by P. Molfese, National Institutes of Health (NIH).

  This software is a "work of the United States Government" prepared by a federal
  employee as part of official duties. As such, it is not subject to copyright
  protection within the United States (17 U.S.C. § 105). International copyrights
  may apply.

  Released under the terms of the GNU General Public License, version 3 (GPL-3.0).
  The U.S. Government authorizes the distribution and modification of this software
  subject to the copyleft requirements of the GPL-3.0.
  SPDX-License-Identifier: GPL-3.0-only
  -->
  <g fill="none" stroke="#000000" stroke-width="2.35" stroke-linecap="round" stroke-linejoin="round">
    <path d="M7 12 H14 C16 12 17 8 19 8 C22 8 22 16 25 16 C27 16 28 12 30 12 H41"/>
    <path d="M7 20 H13 C15 20 16 16 18 16 C21 16 22 25 25 25 C28 25 28 20 31 20 H41"/>
    <path d="M7 28 H14 C16 28 17 24 19 24 C22 24 22 33 25 33 C28 33 28 28 31 28 H41"/>
    <path d="M7 36 H13 C15 36 16 32 18 32 C21 32 22 40 25 40 C28 40 28 36 31 36 H41"/>
  </g>
</svg>
